<?xml version="1.0" encoding="UTF-8"?>
<svg id="Layer_1" data-name="Layer 1" xmlns="http://www.w3.org/2000/svg" viewBox="0 0 3000 3000">
  <defs>
    <style>
      .cls-1 {
        fill: none;
      }

      .cls-2 {
        fill: #ef1b11;
      }

      .cls-3 {
        fill: #ff3b27;
      }

      .cls-4 {
        fill: #fff;
      }

      .cls-5 {
        fill: #e8e8e8;
      }
    </style>
  </defs>
  <g>
    <rect x="1115.67" y="154.84" width="192.17" height="192.17"/>
    <rect x="1307.83" y="154.84" width="192.17" height="192.17"/>
    <rect x="731.34" y="347.01" width="192.17" height="192.17"/>
    <rect x="539.17" y="539.17" width="192.17" height="192.17"/>
    <rect x="347.01" y="731.34" width="192.17" height="192.17"/>
    <rect x="347.01" y="923.5" width="192.17" height="192.17"/>
    <rect x="154.84" y="1115.67" width="192.17" height="192.17"/>
    <rect x="154.84" y="1307.83" width="192.17" height="192.17"/>
    <rect x="154.84" y="1500" width="192.17" height="192.17"/>
    <rect class="cls-4" x="347.01" y="1500" width="192.17" height="192.17"/>
    <rect class="cls-4" x="539.17" y="1500" width="192.17" height="192.17"/>
    <rect x="731.34" y="1500" width="192.17" height="192.17"/>
    <rect x="923.5" y="1500" width="192.17" height="192.17"/>
    <rect x="1115.67" y="1500" width="192.17" height="192.17"/>
    <rect class="cls-4" x="1307.83" y="1500" width="192.17" height="192.17"/>
    <rect class="cls-4" x="1500" y="1500" width="192.17" height="192.17"/>
    <rect x="1692.17" y="1500" width="192.17" height="192.17"/>
    <rect x="1884.33" y="1500" width="192.17" height="192.17"/>
    <rect x="2076.5" y="1500" width="192.17" height="192.17"/>
    <rect class="cls-4" x="2268.66" y="1500" width="192.17" height="192.17"/>
    <rect class="cls-4" x="2460.83" y="1500" width="192.17" height="192.17"/>
    <rect class="cls-4" x="347.01" y="1692.17" width="192.17" height="192.17"/>
    <rect class="cls-4" x="539.17" y="1692.17" width="192.17" height="192.17"/>
    <rect class="cls-4" x="731.34" y="1692.17" width="192.17" height="192.17"/>
    <rect class="cls-4" x="923.5" y="1692.17" width="192.17" height="192.17"/>
    <rect x="1115.67" y="1692.17" width="192.17" height="192.17"/>
    <rect class="cls-4" x="1307.83" y="1692.17" width="192.17" height="192.17"/>
    <rect class="cls-4" x="1500" y="1692.17" width="192.17" height="192.17"/>
    <rect x="1692.17" y="1692.17" width="192.17" height="192.17"/>
    <rect class="cls-4" x="1884.33" y="1692.17" width="192.17" height="192.17"/>
    <rect class="cls-4" x="2076.5" y="1692.17" width="192.17" height="192.17"/>
    <rect class="cls-4" x="2268.66" y="1692.17" width="192.17" height="192.17"/>
    <rect class="cls-4" x="539.17" y="1884.33" width="192.17" height="192.17"/>
    <rect class="cls-4" x="731.34" y="1884.33" width="192.17" height="192.17"/>
    <rect class="cls-4" x="923.5" y="1884.33" width="192.17" height="192.17"/>
    <rect class="cls-4" x="1115.67" y="1884.33" width="192.17" height="192.17"/>
    <rect x="1307.83" y="1884.33" width="192.17" height="192.17"/>
    <rect x="1500" y="1884.33" width="192.17" height="192.17"/>
    <rect class="cls-4" x="1692.17" y="1884.33" width="192.17" height="192.17"/>
    <rect class="cls-4" x="1884.33" y="1884.33" width="192.17" height="192.17"/>
    <rect class="cls-4" x="2076.5" y="1884.33" width="192.17" height="192.17"/>
    <rect class="cls-4" x="2268.66" y="1884.33" width="192.17" height="192.17"/>
    <rect class="cls-5" x="539.17" y="2076.5" width="192.17" height="192.17"/>
    <rect class="cls-4" x="731.34" y="2076.5" width="192.17" height="192.17"/>
    <rect class="cls-4" x="923.5" y="2076.5" width="192.17" height="192.17"/>
    <rect class="cls-4" x="1115.67" y="2076.5" width="192.17" height="192.17"/>
    <rect class="cls-4" x="1307.83" y="2076.5" width="192.17" height="192.17"/>
    <rect class="cls-4" x="1500" y="2076.5" width="192.17" height="192.17"/>
    <rect class="cls-4" x="1692.17" y="2076.5" width="192.17" height="192.17"/>
    <rect class="cls-4" x="1884.33" y="2076.5" width="192.17" height="192.17"/>
    <rect class="cls-4" x="2076.5" y="2076.5" width="192.17" height="192.17"/>
    <rect class="cls-5" x="731.34" y="2268.66" width="192.17" height="192.17"/>
    <rect class="cls-5" x="923.5" y="2268.66" width="192.17" height="192.17"/>
    <rect class="cls-4" x="1115.67" y="2268.66" width="192.17" height="192.17"/>
    <rect class="cls-4" x="1307.83" y="2268.66" width="192.17" height="192.17"/>
    <rect class="cls-4" x="1500" y="2268.66" width="192.17" height="192.17"/>
    <rect class="cls-4" x="1692.17" y="2268.66" width="192.17" height="192.17"/>
    <rect class="cls-5" x="1115.67" y="2460.83" width="192.17" height="192.17"/>
    <rect class="cls-5" x="1307.83" y="2460.83" width="192.17" height="192.17"/>
    <rect class="cls-5" x="1500" y="2460.83" width="192.17" height="192.17"/>
    <rect class="cls-5" x="1692.17" y="2460.83" width="192.17" height="192.17"/>
    <rect class="cls-5" x="1884.33" y="2268.66" width="192.17" height="192.17"/>
    <rect class="cls-5" x="2076.5" y="2268.66" width="192.17" height="192.17"/>
    <rect class="cls-5" x="2268.66" y="2076.5" width="192.17" height="192.17"/>
    <rect class="cls-4" x="2460.83" y="1692.17" width="192.17" height="192.17"/>
    <rect x="347.01" y="1307.83" width="192.17" height="192.17"/>
    <rect x="539.17" y="1307.83" width="192.17" height="192.17"/>
    <rect class="cls-3" x="731.34" y="1307.83" width="192.17" height="192.17"/>
    <rect class="cls-3" x="923.5" y="1307.83" width="192.17" height="192.17"/>
    <rect class="cls-3" x="1115.67" y="1307.83" width="192.17" height="192.17"/>
    <rect x="1307.83" y="1307.83" width="192.17" height="192.17"/>
    <rect x="1500" y="1307.83" width="192.17" height="192.17"/>
    <rect class="cls-3" x="1692.17" y="1307.83" width="192.17" height="192.17"/>
    <rect class="cls-3" x="1884.33" y="1307.83" width="192.17" height="192.17"/>
    <rect class="cls-3" x="2076.5" y="1307.83" width="192.17" height="192.17"/>
    <rect x="2268.66" y="1307.83" width="192.17" height="192.17"/>
    <rect x="2460.83" y="1307.83" width="192.17" height="192.17"/>
    <rect class="cls-3" x="347.01" y="1115.67" width="192.17" height="192.17"/>
    <rect class="cls-3" x="539.17" y="1115.67" width="192.17" height="192.17"/>
    <rect class="cls-3" x="731.34" y="1115.67" width="192.17" height="192.17"/>
    <rect class="cls-3" x="923.5" y="1115.67" width="192.17" height="192.17"/>
    <rect class="cls-3" x="1115.67" y="1115.67" width="192.17" height="192.17"/>
    <rect class="cls-3" x="1307.83" y="1115.67" width="192.17" height="192.17"/>
    <rect class="cls-3" x="1500" y="1115.67" width="192.17" height="192.17"/>
    <rect class="cls-3" x="1692.17" y="1115.67" width="192.17" height="192.17"/>
    <rect class="cls-3" x="1884.33" y="1115.67" width="192.17" height="192.17"/>
    <rect class="cls-3" x="2076.5" y="1115.67" width="192.17" height="192.17"/>
    <rect class="cls-2" x="2268.66" y="1115.67" width="192.17" height="192.17"/>
    <rect class="cls-3" x="539.17" y="923.5" width="192.17" height="192.17"/>
    <rect class="cls-3" x="731.34" y="923.5" width="192.17" height="192.17"/>
    <rect class="cls-3" x="923.5" y="923.5" width="192.17" height="192.17"/>
    <rect class="cls-3" x="1115.67" y="923.5" width="192.17" height="192.17"/>
    <rect class="cls-3" x="1307.83" y="923.5" width="192.17" height="192.17"/>
    <rect class="cls-3" x="1500" y="923.5" width="192.17" height="192.17"/>
    <rect class="cls-3" x="1692.17" y="923.5" width="192.17" height="192.17"/>
    <rect class="cls-3" x="1884.33" y="923.5" width="192.17" height="192.17"/>
    <rect class="cls-3" x="2076.5" y="923.5" width="192.17" height="192.17"/>
    <rect class="cls-2" x="2268.66" y="923.5" width="192.17" height="192.17"/>
    <rect class="cls-2" x="539.17" y="731.34" width="192.17" height="192.17"/>
    <rect class="cls-3" x="731.34" y="731.34" width="192.17" height="192.17"/>
    <rect class="cls-3" x="923.5" y="731.34" width="192.17" height="192.17"/>
    <rect class="cls-3" x="1115.67" y="731.34" width="192.17" height="192.17"/>
    <rect class="cls-3" x="1307.83" y="731.34" width="192.17" height="192.17"/>
    <rect class="cls-3" x="1500" y="731.34" width="192.17" height="192.17"/>
    <rect class="cls-3" x="1692.17" y="731.34" width="192.17" height="192.17"/>
    <rect class="cls-3" x="1884.33" y="731.34" width="192.17" height="192.17"/>
    <rect class="cls-3" x="2076.5" y="731.34" width="192.17" height="192.17"/>
    <rect class="cls-2" x="731.34" y="539.17" width="192.17" height="192.17"/>
    <rect class="cls-2" x="923.5" y="539.17" width="192.17" height="192.17"/>
    <rect class="cls-3" x="1115.67" y="539.17" width="192.17" height="192.17"/>
    <rect class="cls-3" x="1307.83" y="539.17" width="192.17" height="192.17"/>
    <rect class="cls-3" x="1500" y="539.17" width="192.17" height="192.17"/>
    <rect class="cls-3" x="1692.17" y="539.17" width="192.17" height="192.17"/>
    <rect class="cls-2" x="1115.67" y="347.01" width="192.17" height="192.17"/>
    <rect class="cls-2" x="1307.83" y="347.01" width="192.17" height="192.17"/>
    <rect class="cls-2" x="1500" y="347.01" width="192.17" height="192.17"/>
    <rect class="cls-2" x="1692.17" y="347.01" width="192.17" height="192.17"/>
    <rect class="cls-2" x="1884.33" y="539.17" width="192.17" height="192.17"/>
    <rect class="cls-2" x="2076.5" y="539.17" width="192.17" height="192.17"/>
    <rect class="cls-2" x="2268.66" y="731.34" width="192.17" height="192.17"/>
    <rect class="cls-2" x="2460.83" y="1115.67" width="192.17" height="192.17"/>
    <rect x="154.84" y="1692.17" width="192.17" height="192.17"/>
    <rect x="347.01" y="1884.33" width="192.17" height="192.17"/>
    <rect x="347.01" y="2076.5" width="192.17" height="192.17"/>
    <rect x="539.17" y="2268.66" width="192.17" height="192.17"/>
    <rect x="731.34" y="2460.83" width="192.17" height="192.17"/>
    <rect x="923.5" y="2460.83" width="192.17" height="192.17"/>
    <rect x="1115.67" y="2652.99" width="192.17" height="192.17"/>
    <rect x="1307.83" y="2652.99" width="192.17" height="192.17"/>
    <rect x="1500" y="2652.99" width="192.17" height="192.17"/>
    <rect x="1692.17" y="2652.99" width="192.17" height="192.17"/>
    <rect x="923.5" y="347.01" width="192.17" height="192.17"/>
    <rect x="2076.5" y="347.01" width="192.17" height="192.17" transform="translate(4345.16 886.18) rotate(180)"/>
    <rect x="2268.66" y="539.17" width="192.17" height="192.17" transform="translate(4729.49 1270.51) rotate(180)"/>
    <rect x="2460.83" y="731.34" width="192.17" height="192.17" transform="translate(5113.82 1654.84) rotate(180)"/>
    <rect x="2460.83" y="923.5" width="192.17" height="192.17" transform="translate(5113.82 2039.17) rotate(180)"/>
    <rect x="2652.99" y="1115.67" width="192.17" height="192.17" transform="translate(5498.15 2423.5) rotate(180)"/>
    <rect x="2652.99" y="1307.83" width="192.17" height="192.17" transform="translate(5498.15 2807.83) rotate(180)"/>
    <rect x="2652.99" y="1500" width="192.17" height="192.17" transform="translate(5498.15 3192.17) rotate(180)"/>
    <rect x="2652.99" y="1692.17" width="192.17" height="192.17" transform="translate(5498.15 3576.5) rotate(180)"/>
    <rect x="2460.83" y="1884.33" width="192.17" height="192.17" transform="translate(5113.82 3960.83) rotate(180)"/>
    <rect x="2460.83" y="2076.5" width="192.17" height="192.17" transform="translate(5113.82 4345.16) rotate(180)"/>
    <rect x="2268.66" y="2268.66" width="192.17" height="192.17" transform="translate(4729.49 4729.49) rotate(180)"/>
    <rect x="2076.5" y="2460.83" width="192.17" height="192.17" transform="translate(4345.16 5113.82) rotate(180)"/>
    <rect x="1884.33" y="2460.83" width="192.17" height="192.17" transform="translate(3960.83 5113.82) rotate(180)"/>
    <rect x="1884.33" y="347.01" width="192.17" height="192.17" transform="translate(3960.83 886.18) rotate(180)"/>
    <rect x="1500" y="154.84" width="192.17" height="192.17"/>
    <rect x="1692.17" y="154.84" width="192.17" height="192.17"/>
  </g>
  <rect class="cls-1" width="3000" height="3000"/>
</svg>