<?xml version="1.0" encoding="UTF-8"?>
<svg id="Capa_2" data-name="Capa 2" xmlns="http://www.w3.org/2000/svg" viewBox="0 0 131.97 189.28">
  <defs>
    <style>
      .cls-1 {
        fill: #fff;
      }
    </style>
  </defs>
  <g id="Capa_1-2" data-name="Capa 1">
    <g>
      <rect class="cls-1" y="72.98" width="15.02" height="43.32"/>
      <rect class="cls-1" x="116.95" y="15.85" width="15.02" height="157.57"/>
      <polygon class="cls-1" points="58 58.63 15.02 58.63 15.02 72.96 43.59 72.96 43.59 116.32 15.02 116.32 15.02 130.64 58 130.64 58 145.1 72.72 145.1 72.72 130.37 58 130.37 58 116.32 58 72.96 58 72.78 58 58.9 72.72 58.9 72.72 44.18 58 44.18 58 58.63"/>
      <rect class="cls-1" x="72.72" y="29.45" width="14.73" height="14.73"/>
      <rect class="cls-1" x="87.45" y="14.73" width="14.73" height="14.73"/>
      <rect class="cls-1" x="102.17" width="14.73" height="14.73"/>
      <rect class="cls-1" x="72.72" y="145.1" width="14.73" height="14.73"/>
      <rect class="cls-1" x="87.45" y="159.83" width="14.73" height="14.73"/>
      <rect class="cls-1" x="102.17" y="174.55" width="14.73" height="14.73"/>
    </g>
  </g>
</svg>